<svg width="1190" height="717" viewBox="0 0 1190 717" fill="none" xmlns="http://www.w3.org/2000/svg">
<g filter="url(#filter0_d_66_233)">
<rect x="18.8" y="56" width="1152" height="638" rx="50" fill="#F9F6F1"/>
<rect x="22.8" y="60" width="1144" height="630" rx="46" stroke="#1E5B87" stroke-width="8"/>
</g>
<rect x="232.8" y="16" width="723" height="79" rx="39.5" fill="#2F6098"/>
<path d="M505.965 37.765C506.415 36.295 506.91 35.215 507.45 34.525C508.02 33.805 509.16 32.71 510.87 31.24C511.11 31.06 511.56 30.67 512.22 30.07C512.88 29.47 513.45 28.99 513.93 28.63C514.41 28.24 514.89 27.925 515.37 27.685C516.78 27.055 518.535 26.71 520.635 26.65C522.735 26.56 524.52 26.68 525.99 27.01C529.26 27.61 531.48 29.065 532.65 31.375C533.43 32.965 534.405 34.48 535.575 35.92C536.835 37.45 537.63 38.995 537.96 40.555C538.29 42.115 538.26 44.17 537.87 46.72C537.42 49.39 537.03 50.905 536.7 51.265C536.4 51.595 536.25 52.225 536.25 53.155C536.25 53.905 536.07 54.64 535.71 55.36C535.32 56.11 534.42 57.52 533.01 59.59C530.79 62.83 528.645 65.215 526.575 66.745C524.535 68.275 521.835 69.55 518.475 70.57C516.255 71.23 514.965 71.71 514.605 72.01C514.095 72.31 512.985 72.19 511.275 71.65C509.505 71.02 508.56 70.705 508.44 70.705C508.26 70.705 507.54 71.32 506.28 72.55C505.2 73.51 504.12 74.17 503.04 74.53C501.96 74.92 500.43 75.145 498.45 75.205C497.28 75.235 496.53 75.13 496.2 74.89C495.87 74.68 495.33 73.855 494.58 72.415C493.59 70.375 493.095 69.01 493.095 68.32C493.095 67.39 493.515 66.205 494.355 64.765C495.225 63.295 496.005 62.425 496.695 62.155C497.655 61.795 498.885 61.645 500.385 61.705C501.885 61.765 502.935 62.02 503.535 62.47C504.945 63.52 505.83 63.475 506.19 62.335C506.22 62.185 506.325 61.9 506.505 61.48C506.685 61.06 506.895 60.52 507.135 59.86C507.405 59.17 507.615 58.57 507.765 58.06C508.875 55.33 509.445 53.53 509.475 52.66C509.505 51.76 509.04 50.71 508.08 49.51C507.03 48.19 506.19 46.45 505.56 44.29C505.23 42.82 505.065 41.77 505.065 41.14C505.095 40.51 505.395 39.385 505.965 37.765ZM502.41 69.22C502.8 68.77 502.965 68.425 502.905 68.185C502.875 67.915 502.53 67.45 501.87 66.79C500.97 65.89 500.355 65.44 500.025 65.44C499.635 65.44 499.185 65.935 498.675 66.925C498.165 67.885 497.985 68.62 498.135 69.13C498.345 69.85 498.945 70.225 499.935 70.255C500.925 70.255 501.75 69.91 502.41 69.22ZM530.355 36.685C529.035 34.825 528.255 33.46 528.015 32.59C527.895 32.23 527.715 31.87 527.475 31.51C527.235 31.12 526.935 30.82 526.575 30.61C526.215 30.37 525.855 30.25 525.495 30.25C525.405 30.31 524.25 30.46 522.03 30.7C520.62 30.85 519.555 31.09 518.835 31.42C518.115 31.75 517.11 32.5 515.82 33.67C513.99 35.23 512.7 36.52 511.95 37.54C511.2 38.56 510.69 39.67 510.42 40.87C510.21 41.83 510.255 42.865 510.555 43.975C510.885 45.085 511.275 45.64 511.725 45.64C512.025 45.64 512.34 45.37 512.67 44.83C513 44.26 513.3 43.54 513.57 42.67C513.84 41.77 514.005 40.87 514.065 39.97C514.125 39.61 514.155 39.22 514.155 38.8C514.185 38.35 514.2 38.05 514.2 37.9C514.2 37.75 514.23 37.555 514.29 37.315C514.35 37.075 514.395 36.91 514.425 36.82C514.485 36.73 514.605 36.61 514.785 36.46C514.965 36.31 515.13 36.19 515.28 36.1C515.43 35.98 515.685 35.8 516.045 35.56C517.005 35.05 517.905 34.81 518.745 34.84C519.615 34.87 520.275 35.17 520.725 35.74C521.175 36.28 521.205 36.925 520.815 37.675C520.305 38.695 519.87 40.03 519.51 41.68C518.91 43.78 518.085 45.835 517.035 47.845C516.225 49.465 515.775 50.47 515.685 50.86C515.625 51.22 515.85 51.58 516.36 51.94C517.05 52.39 518.565 52.51 520.905 52.3C522.705 52.12 524.115 52.18 525.135 52.48C526.185 52.78 526.71 53.275 526.71 53.965C526.71 54.745 526.14 55.255 525 55.495C523.89 55.735 522.045 55.78 519.465 55.63C518.625 55.6 517.995 55.57 517.575 55.54C517.155 55.51 516.69 55.51 516.18 55.54C515.64 55.57 515.295 55.585 515.145 55.585C514.935 55.615 514.68 55.705 514.38 55.855C514.08 56.005 513.885 56.155 513.795 56.305C513.735 56.425 513.63 56.665 513.48 57.025C513.33 57.355 513.21 57.67 513.12 57.97C513.06 58.24 512.97 58.675 512.85 59.275C512.4 61.105 511.815 62.605 511.095 63.775C510.435 64.915 510.24 65.845 510.51 66.565C510.6 67.015 510.78 67.3 511.05 67.42C511.35 67.51 511.92 67.48 512.76 67.33C514.2 67.12 515.325 67.015 516.135 67.015C517.125 67.015 518.13 66.505 519.15 65.485C520.11 64.525 521.175 63.79 522.345 63.28C523.455 62.8 524.01 62.44 524.01 62.2C524.01 61.96 524.94 60.79 526.8 58.69C528.42 56.8 529.59 55.105 530.31 53.605C531.06 52.075 531.705 49.9 532.245 47.08C532.815 44.5 532.98 42.565 532.74 41.275C532.53 39.955 531.735 38.425 530.355 36.685ZM553.874 67.96C554.534 67.42 555.104 67.21 555.584 67.33C556.094 67.42 556.349 67.885 556.349 68.725C556.379 68.995 556.319 69.265 556.169 69.535C556.049 69.805 555.914 70.045 555.764 70.255C555.614 70.435 555.389 70.645 555.089 70.885C554.819 71.125 554.594 71.305 554.414 71.425C554.234 71.545 553.964 71.725 553.604 71.965C553.274 72.175 553.079 72.31 553.019 72.37C552.299 72.85 551.564 73.255 550.814 73.585C550.754 73.615 550.664 73.645 550.544 73.675C550.454 73.735 550.349 73.78 550.229 73.81C550.109 73.87 549.989 73.915 549.869 73.945C549.749 74.005 549.644 74.05 549.554 74.08C549.494 74.11 549.464 74.125 549.464 74.125C547.634 74.875 545.669 75.31 543.569 75.43C541.409 75.55 539.834 75.355 538.844 74.845C538.724 74.785 538.244 74.575 537.404 74.215C536.564 73.855 535.964 73.54 535.604 73.27C534.914 72.82 534.254 71.845 533.624 70.345C532.454 67.645 531.869 65.26 531.869 63.19C531.869 61.93 532.094 60.28 532.544 58.24C532.574 58.12 532.619 57.865 532.679 57.475C532.769 57.085 532.844 56.8 532.904 56.62C532.964 56.41 533.039 56.14 533.129 55.81C533.219 55.45 533.309 55.15 533.399 54.91C533.489 54.67 533.594 54.43 533.714 54.19C533.834 53.92 533.954 53.68 534.074 53.47C534.704 52.6 535.214 51.97 535.604 51.58C537.224 49.9 539.279 49.15 541.769 49.33C544.349 49.54 545.744 50.395 545.954 51.895C546.134 53.065 546.059 54.28 545.729 55.54C545.429 56.77 545.039 57.79 544.559 58.6C544.109 59.41 543.464 60.46 542.624 61.75C541.814 63.04 541.229 64.03 540.869 64.72C539.549 67.21 538.889 68.695 538.889 69.175C538.889 69.565 539.264 70.12 540.014 70.84C540.494 71.29 540.914 71.56 541.274 71.65C541.664 71.74 542.354 71.695 543.344 71.515C544.904 71.305 546.599 70.93 548.429 70.39C549.119 70.15 550.124 69.745 551.444 69.175C552.764 68.605 553.574 68.2 553.874 67.96ZM536.414 64.765C536.684 64.765 537.434 63.595 538.664 61.255C539.864 58.915 540.464 57.505 540.464 57.025C540.464 56.455 540.149 56.095 539.519 55.945C538.919 55.765 538.439 55.9 538.079 56.35C537.779 56.71 537.479 57.25 537.179 57.97C536.879 58.69 536.639 59.425 536.459 60.175C536.309 60.925 536.174 61.645 536.054 62.335C535.934 63.025 535.904 63.61 535.964 64.09C536.024 64.54 536.174 64.765 536.414 64.765ZM574.402 64.495C575.062 63.925 575.632 63.7 576.112 63.82C576.622 63.91 576.877 64.39 576.877 65.26C576.877 65.44 576.847 65.635 576.787 65.845C576.727 66.055 576.637 66.25 576.517 66.43C576.427 66.58 576.292 66.745 576.112 66.925C575.962 67.105 575.797 67.27 575.617 67.42C575.467 67.54 575.287 67.675 575.077 67.825C574.867 67.975 574.687 68.11 574.537 68.23C574.387 68.32 574.207 68.44 573.997 68.59C573.787 68.74 573.637 68.845 573.547 68.905C572.827 69.385 572.077 69.79 571.297 70.12C571.237 70.15 571.087 70.225 570.847 70.345C570.037 71.185 569.317 71.755 568.687 72.055C568.087 72.295 567.292 72.445 566.302 72.505C565.282 72.805 564.577 72.775 564.187 72.415C564.067 72.415 563.707 72.385 563.107 72.325C562.537 72.265 562.147 72.235 561.937 72.235C561.727 72.205 561.397 72.19 560.947 72.19C560.527 72.19 560.152 72.235 559.822 72.325C559.522 72.415 559.222 72.535 558.922 72.685C558.532 72.925 558.037 73.03 557.437 73C556.837 72.97 555.802 72.85 554.332 72.64C553.282 72.49 552.397 72.385 551.677 72.325C551.527 72.325 551.362 72.325 551.182 72.325C551.002 72.325 550.807 72.325 550.597 72.325C550.387 72.295 550.222 72.235 550.102 72.145C549.772 71.935 549.367 71.125 548.887 69.715C548.617 68.905 548.452 68.065 548.392 67.195C548.332 66.835 548.332 66.55 548.392 66.34C548.542 65.59 548.782 65.125 549.112 64.945C549.232 64.885 549.457 64.825 549.787 64.765C550.117 64.705 550.357 64.6 550.507 64.45C550.777 64.24 551.002 63.895 551.182 63.415C551.362 62.905 551.467 62.38 551.497 61.84C551.527 61.36 551.572 61.045 551.632 60.895C551.752 60.715 551.977 60.52 552.307 60.31C552.667 60.1 552.862 59.98 552.892 59.95C553.252 59.65 553.567 59.245 553.837 58.735C553.957 58.465 554.197 57.625 554.557 56.215C554.887 55.105 555.157 53.965 555.367 52.795C555.577 51.655 555.727 50.68 555.817 49.87C555.967 48.01 556.162 46.915 556.402 46.585C556.672 46.255 557.152 46.105 557.842 46.135C558.562 46.135 559.177 46.33 559.687 46.72C559.927 46.87 560.137 47.125 560.317 47.485C560.527 47.815 560.677 48.115 560.767 48.385C560.857 48.655 560.962 49.03 561.082 49.51C561.232 49.99 561.337 50.305 561.397 50.455C561.937 52.075 562.327 53.575 562.567 54.955C562.657 55.495 562.762 56.29 562.882 57.34C563.002 58.36 563.137 59.29 563.287 60.13C563.437 60.97 563.647 61.75 563.917 62.47C564.397 63.79 564.562 64.975 564.412 66.025C564.322 66.685 564.277 67.3 564.277 67.87C564.277 68.44 564.457 68.905 564.817 69.265C565.207 69.625 565.792 69.775 566.572 69.715C566.902 69.685 567.232 69.61 567.562 69.49C567.892 69.37 568.162 69.25 568.372 69.13C568.612 69.01 568.897 68.815 569.227 68.545C569.587 68.275 569.827 68.095 569.947 68.005C570.067 67.885 570.322 67.645 570.712 67.285C571.162 66.865 571.852 66.325 572.782 65.665C573.742 64.975 574.282 64.585 574.402 64.495ZM557.977 67.555C559.327 67.255 560.122 66.595 560.362 65.575C560.602 64.525 560.347 62.845 559.597 60.535C558.847 58.345 558.382 57.25 558.202 57.25C557.992 57.25 557.812 57.67 557.662 58.51C557.482 59.29 557.257 59.86 556.987 60.22C556.627 60.73 556.057 61.825 555.277 63.505C554.497 65.155 554.167 66.07 554.287 66.25C554.437 66.46 554.737 66.685 555.187 66.925C555.637 67.165 556.117 67.345 556.627 67.465C557.167 67.585 557.617 67.615 557.977 67.555ZM593.34 67.96C594 67.42 594.57 67.21 595.05 67.33C595.56 67.42 595.815 67.885 595.815 68.725C595.845 68.995 595.785 69.265 595.635 69.535C595.515 69.805 595.38 70.045 595.23 70.255C595.08 70.435 594.855 70.645 594.555 70.885C594.285 71.125 594.06 71.305 593.88 71.425C593.7 71.545 593.43 71.725 593.07 71.965C592.74 72.175 592.545 72.31 592.485 72.37C591.765 72.85 591.03 73.255 590.28 73.585C590.22 73.615 590.13 73.645 590.01 73.675C589.92 73.735 589.815 73.78 589.695 73.81C589.575 73.87 589.455 73.915 589.335 73.945C589.215 74.005 589.11 74.05 589.02 74.08C588.96 74.11 588.93 74.125 588.93 74.125C587.1 74.875 585.135 75.31 583.035 75.43C580.875 75.55 579.3 75.355 578.31 74.845C578.19 74.785 577.71 74.575 576.87 74.215C576.03 73.855 575.43 73.54 575.07 73.27C574.38 72.82 573.72 71.845 573.09 70.345C571.92 67.645 571.335 65.26 571.335 63.19C571.335 61.93 571.56 60.28 572.01 58.24C572.04 58.12 572.085 57.865 572.145 57.475C572.235 57.085 572.31 56.8 572.37 56.62C572.43 56.41 572.505 56.14 572.595 55.81C572.685 55.45 572.775 55.15 572.865 54.91C572.955 54.67 573.06 54.43 573.18 54.19C573.3 53.92 573.42 53.68 573.54 53.47C574.17 52.6 574.68 51.97 575.07 51.58C576.69 49.9 578.745 49.15 581.235 49.33C583.815 49.54 585.21 50.395 585.42 51.895C585.6 53.065 585.525 54.28 585.195 55.54C584.895 56.77 584.505 57.79 584.025 58.6C583.575 59.41 582.93 60.46 582.09 61.75C581.28 63.04 580.695 64.03 580.335 64.72C579.015 67.21 578.355 68.695 578.355 69.175C578.355 69.565 578.73 70.12 579.48 70.84C579.96 71.29 580.38 71.56 580.74 71.65C581.13 71.74 581.82 71.695 582.81 71.515C584.37 71.305 586.065 70.93 587.895 70.39C588.585 70.15 589.59 69.745 590.91 69.175C592.23 68.605 593.04 68.2 593.34 67.96ZM575.88 64.765C576.15 64.765 576.9 63.595 578.13 61.255C579.33 58.915 579.93 57.505 579.93 57.025C579.93 56.455 579.615 56.095 578.985 55.945C578.385 55.765 577.905 55.9 577.545 56.35C577.245 56.71 576.945 57.25 576.645 57.97C576.345 58.69 576.105 59.425 575.925 60.175C575.775 60.925 575.64 61.645 575.52 62.335C575.4 63.025 575.37 63.61 575.43 64.09C575.49 64.54 575.64 64.765 575.88 64.765ZM630.518 66.16C631.178 65.62 631.748 65.41 632.228 65.53C632.738 65.62 633.008 66.085 633.038 66.925C633.038 67.195 632.978 67.465 632.858 67.735C632.738 68.005 632.603 68.245 632.453 68.455C632.303 68.635 632.078 68.845 631.778 69.085C631.478 69.325 631.238 69.505 631.058 69.625C630.908 69.745 630.653 69.925 630.293 70.165C629.963 70.375 629.753 70.51 629.663 70.57C628.733 71.2 627.833 71.875 626.963 72.595C625.793 73.525 624.578 74.17 623.318 74.53C621.848 74.95 620.708 75.175 619.898 75.205C619.058 75.235 618.023 75.07 616.793 74.71C615.623 74.41 614.678 74.005 613.958 73.495C613.268 73.015 612.728 72.385 612.338 71.605C611.948 70.825 611.738 69.85 611.708 68.68C611.708 67.48 611.858 66.13 612.158 64.63C612.428 63.1 612.878 61.255 613.508 59.095C613.688 58.555 613.628 58.285 613.328 58.285C612.518 58.285 610.943 59.725 608.603 62.605C606.263 65.485 604.448 68.185 603.158 70.705C602.258 72.445 601.508 73.495 600.908 73.855C600.308 74.215 599.633 74.035 598.883 73.315C598.253 72.745 597.953 72.205 597.983 71.695C598.013 71.155 598.403 70.03 599.153 68.32C599.783 67.06 600.098 66.19 600.098 65.71C600.098 65.29 600.413 64.42 601.043 63.1C601.463 61.6 601.598 60.805 601.448 60.715C601.118 60.715 600.458 61.255 599.468 62.335C598.508 63.385 597.488 64.66 596.408 66.16C595.358 67.63 594.563 68.875 594.023 69.895C593.183 71.455 592.418 72.445 591.728 72.865C591.038 73.285 590.348 73.195 589.658 72.595C588.998 71.995 588.743 71.26 588.893 70.39C589.043 69.49 589.643 68.035 590.693 66.025C590.993 65.395 591.278 64.48 591.548 63.28C591.848 62.05 592.133 61.18 592.403 60.67C593.393 58.54 594.473 57.025 595.643 56.125C595.913 55.915 596.198 55.735 596.498 55.585C596.798 55.405 597.098 55.3 597.398 55.27C597.728 55.21 597.938 55.3 598.028 55.54C598.148 55.78 598.148 56.185 598.028 56.755C597.758 57.685 597.863 58.105 598.343 58.015C598.703 57.985 599.123 57.58 599.603 56.8C600.293 55.75 601.103 54.895 602.033 54.235C602.393 53.995 602.693 53.815 602.933 53.695C603.233 53.575 603.428 53.5 603.518 53.47C603.668 53.38 603.878 53.35 604.148 53.38C604.418 53.41 604.613 53.44 604.733 53.47C604.853 53.47 605.093 53.53 605.453 53.65C605.843 53.77 606.143 53.845 606.353 53.875C607.193 54.055 607.613 54.295 607.613 54.595C607.673 54.655 607.718 55.105 607.748 55.945C607.808 56.335 607.883 56.62 607.973 56.8C608.063 56.98 608.243 57.07 608.513 57.07C608.783 57.04 609.113 56.935 609.503 56.755C609.893 56.545 610.478 56.185 611.258 55.675C613.058 54.535 614.603 53.875 615.893 53.695C616.853 53.605 617.453 53.635 617.693 53.785C617.933 53.905 618.188 54.25 618.458 54.82C618.818 55.75 618.893 56.935 618.683 58.375C618.473 59.815 618.083 61.165 617.513 62.425C616.853 63.685 616.523 64.645 616.523 65.305C616.523 65.845 616.358 66.64 616.028 67.69C615.698 68.59 615.743 69.43 616.163 70.21C616.613 70.99 617.303 71.47 618.233 71.65C618.773 71.74 619.478 71.695 620.348 71.515C620.588 71.455 622.043 70.855 624.713 69.715C624.713 69.715 624.983 69.55 625.523 69.22C626.093 68.89 626.693 68.545 627.323 68.185C627.983 67.795 628.628 67.405 629.258 67.015C629.888 66.625 630.308 66.34 630.518 66.16ZM657.099 64.27C657.129 64.45 657.144 64.795 657.144 65.305C657.144 66.445 656.649 67.195 655.659 67.555C654.699 67.915 652.914 68.02 650.304 67.87L645.939 67.645L644.499 70.39C643.539 72.25 642.474 73.6 641.304 74.44C640.134 75.31 638.574 75.91 636.624 76.24C634.584 76.57 632.934 76.495 631.674 76.015C630.684 75.625 629.829 75.04 629.109 74.26C628.419 73.48 627.924 72.625 627.624 71.695C627.324 70.735 627.129 69.715 627.039 68.635C626.949 67.555 627.009 66.52 627.219 65.53C627.489 63.85 628.029 61.435 628.839 58.285C629.649 55.105 630.204 52.78 630.504 51.31C630.954 48.76 631.494 46.795 632.124 45.415C632.994 43.435 633.684 41.905 634.194 40.825C634.674 39.805 635.274 38.605 635.994 37.225C636.384 36.475 636.849 35.365 637.389 33.895C637.749 32.935 638.034 32.215 638.244 31.735C638.484 31.255 638.814 30.655 639.234 29.935C639.654 29.185 640.149 28.57 640.719 28.09C641.319 27.58 642.009 27.13 642.789 26.74C643.629 26.32 644.454 26.11 645.264 26.11C646.104 26.08 646.869 26.35 647.559 26.92C648.279 27.67 648.684 28.72 648.774 30.07C648.864 31.42 648.774 32.65 648.504 33.76C648.264 34.84 647.934 35.92 647.514 37C646.314 40 645.519 42.22 645.129 43.66C644.799 44.95 644.379 46.045 643.869 46.945C641.529 51.085 640.314 53.245 640.224 53.425C638.964 55.675 637.284 58.21 635.184 61.03C634.044 62.59 633.309 64.405 632.979 66.475C632.649 68.515 632.919 69.715 633.789 70.075C633.819 70.135 633.969 70.225 634.239 70.345C634.509 70.465 634.764 70.585 635.004 70.705C635.274 70.825 635.514 70.96 635.724 71.11C636.174 71.35 636.549 71.455 636.849 71.425C637.179 71.395 637.614 71.215 638.154 70.885C638.724 70.465 639.474 69.355 640.404 67.555C641.364 65.725 641.844 64.405 641.844 63.595C641.844 62.875 642.144 62.185 642.744 61.525C643.344 60.865 643.974 60.535 644.634 60.535C645.444 60.535 646.494 61.225 647.784 62.605C648.444 63.265 649.014 63.73 649.494 64C649.974 64.24 650.349 64.36 650.619 64.36C650.919 64.36 651.489 64.3 652.329 64.18C653.139 64.06 653.919 63.985 654.669 63.955C655.479 63.865 656.064 63.85 656.424 63.91C656.814 63.97 657.039 64.09 657.099 64.27ZM635.724 47.755C635.124 49.495 634.734 50.935 634.554 52.075C634.374 53.185 634.419 53.83 634.689 54.01C634.989 54.01 635.499 53.2 636.219 51.58C636.579 50.86 637.374 49.255 638.604 46.765C639.864 44.245 640.689 42.535 641.079 41.635C642.249 38.785 642.834 37.195 642.834 36.865C642.834 35.905 642.009 36.325 640.359 38.125C639.309 39.385 638.784 40.195 638.784 40.555C638.784 41.125 638.379 42.1 637.569 43.48C636.939 44.59 636.324 46.015 635.724 47.755ZM673.59 67.96C674.25 67.42 674.82 67.21 675.3 67.33C675.81 67.42 676.065 67.885 676.065 68.725C676.095 68.995 676.035 69.265 675.885 69.535C675.765 69.805 675.63 70.045 675.48 70.255C675.33 70.435 675.105 70.645 674.805 70.885C674.535 71.125 674.31 71.305 674.13 71.425C673.95 71.545 673.68 71.725 673.32 71.965C672.99 72.175 672.795 72.31 672.735 72.37C672.015 72.85 671.28 73.255 670.53 73.585C670.47 73.615 670.38 73.645 670.26 73.675C670.17 73.735 670.065 73.78 669.945 73.81C669.825 73.87 669.705 73.915 669.585 73.945C669.465 74.005 669.36 74.05 669.27 74.08C669.21 74.11 669.18 74.125 669.18 74.125C667.35 74.875 665.385 75.31 663.285 75.43C661.125 75.55 659.55 75.355 658.56 74.845C658.44 74.785 657.96 74.575 657.12 74.215C656.28 73.855 655.68 73.54 655.32 73.27C654.63 72.82 653.97 71.845 653.34 70.345C652.17 67.645 651.585 65.26 651.585 63.19C651.585 61.93 651.81 60.28 652.26 58.24C652.29 58.12 652.335 57.865 652.395 57.475C652.485 57.085 652.56 56.8 652.62 56.62C652.68 56.41 652.755 56.14 652.845 55.81C652.935 55.45 653.025 55.15 653.115 54.91C653.205 54.67 653.31 54.43 653.43 54.19C653.55 53.92 653.67 53.68 653.79 53.47C654.42 52.6 654.93 51.97 655.32 51.58C656.94 49.9 658.995 49.15 661.485 49.33C664.065 49.54 665.46 50.395 665.67 51.895C665.85 53.065 665.775 54.28 665.445 55.54C665.145 56.77 664.755 57.79 664.275 58.6C663.825 59.41 663.18 60.46 662.34 61.75C661.53 63.04 660.945 64.03 660.585 64.72C659.265 67.21 658.605 68.695 658.605 69.175C658.605 69.565 658.98 70.12 659.73 70.84C660.21 71.29 660.63 71.56 660.99 71.65C661.38 71.74 662.07 71.695 663.06 71.515C664.62 71.305 666.315 70.93 668.145 70.39C668.835 70.15 669.84 69.745 671.16 69.175C672.48 68.605 673.29 68.2 673.59 67.96ZM656.13 64.765C656.4 64.765 657.15 63.595 658.38 61.255C659.58 58.915 660.18 57.505 660.18 57.025C660.18 56.455 659.865 56.095 659.235 55.945C658.635 55.765 658.155 55.9 657.795 56.35C657.495 56.71 657.195 57.25 656.895 57.97C656.595 58.69 656.355 59.425 656.175 60.175C656.025 60.925 655.89 61.645 655.77 62.335C655.65 63.025 655.62 63.61 655.68 64.09C655.74 64.54 655.89 64.765 656.13 64.765ZM699.698 65.71C700.328 65.14 700.883 64.915 701.363 65.035C701.873 65.125 702.143 65.59 702.173 66.43C702.173 66.67 702.128 66.91 702.038 67.15C701.978 67.36 701.858 67.57 701.678 67.78C701.528 67.96 701.363 68.14 701.183 68.32C701.033 68.5 700.838 68.68 700.598 68.86C700.358 69.04 700.148 69.19 699.968 69.31C699.818 69.43 699.608 69.58 699.338 69.76C699.068 69.91 698.888 70.03 698.798 70.12C698.078 70.6 697.343 70.99 696.593 71.29C696.533 71.32 696.443 71.365 696.323 71.425C696.263 71.575 696.143 71.695 695.963 71.785C695.783 71.875 695.513 71.965 695.153 72.055C694.463 72.445 693.443 72.715 692.093 72.865C690.743 73.015 689.513 73.06 688.403 73C687.293 72.91 686.573 72.775 686.243 72.595C685.973 72.415 685.673 72.04 685.343 71.47C685.013 70.9 684.728 70.33 684.488 69.76C684.248 69.19 684.098 68.755 684.038 68.455C683.828 67.585 683.753 66.655 683.813 65.665C683.903 64.645 684.068 63.055 684.308 60.895V60.265C684.308 60.115 684.248 60.01 684.128 59.95C684.038 59.86 683.903 59.8 683.723 59.77C683.543 59.77 683.303 59.77 683.003 59.77C682.643 59.77 682.238 59.71 681.788 59.59C681.338 59.47 680.888 59.365 680.438 59.275C680.018 59.155 679.643 59.095 679.313 59.095C679.343 59.095 679.238 59.575 678.998 60.535C678.758 61.465 678.443 62.455 678.053 63.505C677.693 64.555 677.363 65.17 677.063 65.35C675.983 65.98 674.843 66.43 673.643 66.7C672.083 67.06 672.788 63.655 675.758 56.485C675.818 56.305 675.968 55.93 676.208 55.36C676.448 54.79 676.613 54.4 676.703 54.19C676.793 53.95 676.928 53.59 677.108 53.11C677.318 52.6 677.468 52.195 677.558 51.895C677.648 51.565 677.738 51.175 677.828 50.725C677.948 50.275 678.023 49.855 678.053 49.465C678.113 49.045 678.143 48.625 678.143 48.205C678.143 47.725 678.443 46.87 679.043 45.64C679.673 44.41 680.168 43.66 680.528 43.39C681.008 43.12 681.653 43.03 682.463 43.12C683.303 43.18 683.858 43.36 684.128 43.66C684.488 44.11 684.488 45.85 684.128 48.88C683.858 50.86 683.738 52.135 683.768 52.705C683.798 53.305 683.963 53.785 684.263 54.145C684.623 54.445 684.938 54.595 685.208 54.595C685.478 54.565 685.988 54.325 686.738 53.875C687.848 53.245 688.643 52.945 689.123 52.975C689.633 53.005 690.098 53.35 690.518 54.01C690.848 54.49 690.998 54.925 690.968 55.315C690.938 55.705 690.713 56.455 690.293 57.565C689.693 59.155 689.153 60.97 688.673 63.01C688.313 64.63 688.193 65.83 688.313 66.61C688.463 67.39 688.958 68.305 689.798 69.355C690.158 69.865 690.443 70.15 690.653 70.21C690.743 70.24 690.893 70.225 691.103 70.165C691.343 70.075 691.583 69.985 691.823 69.895C692.093 69.775 692.273 69.7 692.363 69.67C693.293 69.43 693.908 69.235 694.208 69.085C696.518 67.885 698.348 66.76 699.698 65.71Z" fill="#F9F6F1"/>
<rect width="48.3479" height="48.3479" transform="matrix(0.42632 -0.904573 0.833818 0.552039 552.099 205.794)" fill="#2F6098"/>
<ellipse cx="592.464" cy="176.245" rx="22.3673" ry="25.8547" transform="rotate(-15.6294 592.464 176.245)" fill="#2F6098"/>
<ellipse cx="562.924" cy="184.51" rx="22.3673" ry="25.8547" transform="rotate(-15.6294 562.924 184.51)" fill="#2F6098"/>
<path d="M238.494 179V173.84H248.134V203H242.374V179H238.494Z" fill="#2F6098"/>
<path d="M344.696 196.68C347.256 194.547 349.296 192.773 350.816 191.36C352.336 189.92 353.602 188.427 354.616 186.88C355.629 185.333 356.136 183.813 356.136 182.32C356.136 180.96 355.816 179.893 355.176 179.12C354.536 178.347 353.549 177.96 352.216 177.96C350.882 177.96 349.856 178.413 349.136 179.32C348.416 180.2 348.042 181.413 348.016 182.96H342.576C342.682 179.76 343.629 177.333 345.416 175.68C347.229 174.027 349.522 173.2 352.296 173.2C355.336 173.2 357.669 174.013 359.296 175.64C360.922 177.24 361.736 179.36 361.736 182C361.736 184.08 361.176 186.067 360.056 187.96C358.936 189.853 357.656 191.507 356.216 192.92C354.776 194.307 352.896 195.987 350.576 197.96H362.376V202.6H342.616V198.44L344.696 196.68Z" fill="#2F6098"/>
<path d="M455.027 181.52C455.161 178.853 456.094 176.8 457.827 175.36C459.587 173.893 461.894 173.16 464.747 173.16C466.694 173.16 468.361 173.507 469.747 174.2C471.134 174.867 472.174 175.787 472.867 176.96C473.587 178.107 473.947 179.413 473.947 180.88C473.947 182.56 473.507 183.987 472.627 185.16C471.774 186.307 470.747 187.08 469.547 187.48V187.64C471.094 188.12 472.294 188.973 473.147 190.2C474.027 191.427 474.467 193 474.467 194.92C474.467 196.52 474.094 197.947 473.347 199.2C472.627 200.453 471.547 201.44 470.107 202.16C468.694 202.853 466.987 203.2 464.987 203.2C461.974 203.2 459.521 202.44 457.627 200.92C455.734 199.4 454.734 197.16 454.627 194.2H460.067C460.121 195.507 460.561 196.56 461.387 197.36C462.241 198.133 463.401 198.52 464.867 198.52C466.227 198.52 467.267 198.147 467.987 197.4C468.734 196.627 469.107 195.64 469.107 194.44C469.107 192.84 468.601 191.693 467.587 191C466.574 190.307 465.001 189.96 462.867 189.96H461.707V185.36H462.867C466.654 185.36 468.547 184.093 468.547 181.56C468.547 180.413 468.201 179.52 467.507 178.88C466.841 178.24 465.867 177.92 464.587 177.92C463.334 177.92 462.361 178.267 461.667 178.96C461.001 179.627 460.614 180.48 460.507 181.52H455.027Z" fill="#2F6098"/>
<path d="M567.957 197.32V192.92L581.037 174.2H587.557V192.44H591.077V197.32H587.557V203H581.957V197.32H567.957ZM582.317 180.2L574.117 192.44H582.317V180.2Z" fill="#F9F6F1"/>
<path d="M703.649 178.68H690.689V185.52C691.249 184.827 692.049 184.267 693.089 183.84C694.129 183.387 695.236 183.16 696.409 183.16C698.542 183.16 700.289 183.627 701.649 184.56C703.009 185.493 703.996 186.693 704.609 188.16C705.222 189.6 705.529 191.147 705.529 192.8C705.529 195.867 704.649 198.333 702.889 200.2C701.156 202.067 698.676 203 695.449 203C692.409 203 689.982 202.24 688.169 200.72C686.356 199.2 685.329 197.213 685.089 194.76H690.529C690.769 195.827 691.302 196.68 692.129 197.32C692.982 197.96 694.062 198.28 695.369 198.28C696.942 198.28 698.129 197.787 698.929 196.8C699.729 195.813 700.129 194.507 700.129 192.88C700.129 191.227 699.716 189.973 698.889 189.12C698.089 188.24 696.902 187.8 695.329 187.8C694.209 187.8 693.276 188.08 692.529 188.64C691.782 189.2 691.249 189.947 690.929 190.88H685.569V173.76H703.649V178.68Z" fill="#2F6098"/>
<path d="M814.247 181.12C813.98 180 813.514 179.16 812.847 178.6C812.207 178.04 811.274 177.76 810.047 177.76C808.207 177.76 806.847 178.507 805.967 180C805.114 181.467 804.674 183.867 804.647 187.2C805.287 186.133 806.22 185.307 807.447 184.72C808.674 184.107 810.007 183.8 811.447 183.8C813.18 183.8 814.714 184.173 816.047 184.92C817.38 185.667 818.42 186.76 819.167 188.2C819.914 189.613 820.287 191.32 820.287 193.32C820.287 195.213 819.9 196.907 819.127 198.4C818.38 199.867 817.274 201.013 815.807 201.84C814.34 202.667 812.594 203.08 810.567 203.08C807.794 203.08 805.607 202.467 804.007 201.24C802.434 200.013 801.327 198.307 800.687 196.12C800.074 193.907 799.767 191.187 799.767 187.96C799.767 183.08 800.607 179.4 802.287 176.92C803.967 174.413 806.62 173.16 810.247 173.16C813.047 173.16 815.22 173.92 816.767 175.44C818.314 176.96 819.207 178.853 819.447 181.12H814.247ZM810.167 188.4C808.754 188.4 807.567 188.813 806.607 189.64C805.647 190.467 805.167 191.667 805.167 193.24C805.167 194.813 805.607 196.053 806.487 196.96C807.394 197.867 808.66 198.32 810.287 198.32C811.727 198.32 812.86 197.88 813.687 197C814.54 196.12 814.967 194.933 814.967 193.44C814.967 191.893 814.554 190.667 813.727 189.76C812.927 188.853 811.74 188.4 810.167 188.4Z" fill="#2F6098"/>
<path d="M932.523 178.08L921.883 203H916.203L926.923 178.72H913.243V173.92H932.523V178.08Z" fill="#2F6098"/>
<path d="M235.948 280.56C233.282 279.173 231.948 277.027 231.948 274.12C231.948 272.68 232.308 271.373 233.028 270.2C233.775 269 234.882 268.053 236.348 267.36C237.842 266.64 239.655 266.28 241.788 266.28C243.922 266.28 245.722 266.64 247.188 267.36C248.682 268.053 249.788 269 250.508 270.2C251.255 271.373 251.628 272.68 251.628 274.12C251.628 275.587 251.268 276.88 250.548 278C249.828 279.093 248.868 279.947 247.668 280.56C249.135 281.2 250.282 282.133 251.108 283.36C251.935 284.587 252.348 286.04 252.348 287.72C252.348 289.533 251.882 291.12 250.948 292.48C250.042 293.813 248.788 294.84 247.188 295.56C245.588 296.28 243.788 296.64 241.788 296.64C239.788 296.64 237.988 296.28 236.388 295.56C234.815 294.84 233.562 293.813 232.628 292.48C231.722 291.12 231.268 289.533 231.268 287.72C231.268 286.04 231.682 284.587 232.508 283.36C233.335 282.107 234.482 281.173 235.948 280.56ZM246.188 274.92C246.188 273.613 245.788 272.6 244.988 271.88C244.215 271.16 243.148 270.8 241.788 270.8C240.455 270.8 239.388 271.16 238.588 271.88C237.815 272.6 237.428 273.627 237.428 274.96C237.428 276.16 237.828 277.12 238.628 277.84C239.455 278.56 240.508 278.92 241.788 278.92C243.068 278.92 244.122 278.56 244.948 277.84C245.775 277.093 246.188 276.12 246.188 274.92ZM241.788 283C240.268 283 239.028 283.387 238.068 284.16C237.135 284.933 236.668 286.04 236.668 287.48C236.668 288.813 237.122 289.907 238.028 290.76C238.962 291.587 240.215 292 241.788 292C243.362 292 244.602 291.573 245.508 290.72C246.415 289.867 246.868 288.787 246.868 287.48C246.868 286.067 246.402 284.973 245.468 284.2C244.535 283.4 243.308 283 241.788 283Z" fill="#2F6098"/>
<path d="M345.881 287.8C346.094 288.973 346.574 289.88 347.321 290.52C348.094 291.133 349.121 291.44 350.401 291.44C352.054 291.44 353.254 290.76 354.001 289.4C354.747 288.013 355.121 285.693 355.121 282.44C354.507 283.293 353.641 283.96 352.521 284.44C351.427 284.92 350.241 285.16 348.961 285.16C347.254 285.16 345.707 284.813 344.321 284.12C342.961 283.4 341.881 282.347 341.081 280.96C340.281 279.547 339.881 277.84 339.881 275.84C339.881 272.88 340.761 270.533 342.521 268.8C344.281 267.04 346.681 266.16 349.721 266.16C353.507 266.16 356.174 267.373 357.721 269.8C359.294 272.227 360.081 275.88 360.081 280.76C360.081 284.227 359.774 287.067 359.161 289.28C358.574 291.493 357.547 293.173 356.081 294.32C354.641 295.467 352.667 296.04 350.161 296.04C348.187 296.04 346.507 295.667 345.121 294.92C343.734 294.147 342.667 293.147 341.921 291.92C341.201 290.667 340.787 289.293 340.681 287.8H345.881ZM350.121 280.6C351.507 280.6 352.601 280.173 353.401 279.32C354.201 278.467 354.601 277.32 354.601 275.88C354.601 274.307 354.174 273.093 353.321 272.24C352.494 271.36 351.361 270.92 349.921 270.92C348.481 270.92 347.334 271.373 346.481 272.28C345.654 273.16 345.241 274.333 345.241 275.8C345.241 277.213 345.641 278.373 346.441 279.28C347.267 280.16 348.494 280.6 350.121 280.6Z" fill="#2F6098"/>
<path d="M444.564 272V266.84H454.204V296H448.444V272H444.564ZM459.736 281.04C459.736 276.427 460.563 272.813 462.216 270.2C463.896 267.587 466.67 266.28 470.536 266.28C474.403 266.28 477.163 267.587 478.816 270.2C480.496 272.813 481.336 276.427 481.336 281.04C481.336 285.68 480.496 289.32 478.816 291.96C477.163 294.6 474.403 295.92 470.536 295.92C466.67 295.92 463.896 294.6 462.216 291.96C460.563 289.32 459.736 285.68 459.736 281.04ZM475.816 281.04C475.816 279.067 475.683 277.413 475.416 276.08C475.176 274.72 474.67 273.613 473.896 272.76C473.15 271.907 472.03 271.48 470.536 271.48C469.043 271.48 467.91 271.907 467.136 272.76C466.39 273.613 465.883 274.72 465.616 276.08C465.376 277.413 465.256 279.067 465.256 281.04C465.256 283.067 465.376 284.773 465.616 286.16C465.856 287.52 466.363 288.627 467.136 289.48C467.91 290.307 469.043 290.72 470.536 290.72C472.03 290.72 473.163 290.307 473.936 289.48C474.71 288.627 475.216 287.52 475.456 286.16C475.696 284.773 475.816 283.067 475.816 281.04Z" fill="#2F6098"/>
<path d="M564.248 272V266.84H573.888V296H568.128V272H564.248ZM578.74 272V266.84H588.38V296H582.62V272H578.74Z" fill="#2F6098"/>
<path d="M675.51 272V266.84H685.15V296H679.39V272H675.51ZM692.442 289.68C695.002 287.547 697.042 285.773 698.562 284.36C700.082 282.92 701.348 281.427 702.362 279.88C703.375 278.333 703.882 276.813 703.882 275.32C703.882 273.96 703.562 272.893 702.922 272.12C702.282 271.347 701.295 270.96 699.962 270.96C698.628 270.96 697.602 271.413 696.882 272.32C696.162 273.2 695.788 274.413 695.762 275.96H690.322C690.428 272.76 691.375 270.333 693.162 268.68C694.975 267.027 697.268 266.2 700.042 266.2C703.082 266.2 705.415 267.013 707.042 268.64C708.668 270.24 709.482 272.36 709.482 275C709.482 277.08 708.922 279.067 707.802 280.96C706.682 282.853 705.402 284.507 703.962 285.92C702.522 287.307 700.642 288.987 698.322 290.96H710.122V295.6H690.362V291.44L692.442 289.68Z" fill="#2F6098"/>
<path d="M790.521 272V266.84H800.161V296H794.401V272H790.521ZM805.773 274.52C805.907 271.853 806.84 269.8 808.573 268.36C810.333 266.893 812.64 266.16 815.493 266.16C817.44 266.16 819.107 266.507 820.493 267.2C821.88 267.867 822.92 268.787 823.613 269.96C824.333 271.107 824.693 272.413 824.693 273.88C824.693 275.56 824.253 276.987 823.373 278.16C822.52 279.307 821.493 280.08 820.293 280.48V280.64C821.84 281.12 823.04 281.973 823.893 283.2C824.773 284.427 825.213 286 825.213 287.92C825.213 289.52 824.84 290.947 824.093 292.2C823.373 293.453 822.293 294.44 820.853 295.16C819.44 295.853 817.733 296.2 815.733 296.2C812.72 296.2 810.267 295.44 808.373 293.92C806.48 292.4 805.48 290.16 805.373 287.2H810.813C810.867 288.507 811.307 289.56 812.133 290.36C812.987 291.133 814.147 291.52 815.613 291.52C816.973 291.52 818.013 291.147 818.733 290.4C819.48 289.627 819.853 288.64 819.853 287.44C819.853 285.84 819.347 284.693 818.333 284C817.32 283.307 815.747 282.96 813.613 282.96H812.453V278.36H813.613C817.4 278.36 819.293 277.093 819.293 274.56C819.293 273.413 818.947 272.52 818.253 271.88C817.587 271.24 816.613 270.92 815.333 270.92C814.08 270.92 813.107 271.267 812.413 271.96C811.747 272.627 811.36 273.48 811.253 274.52H805.773Z" fill="#2F6098"/>
<path d="M902.271 272V266.84H911.911V296H906.151V272H902.271ZM917.203 290.32V285.92L930.283 267.2H936.803V285.44H940.323V290.32H936.803V296H931.203V290.32H917.203ZM931.563 273.2L923.363 285.44H931.563V273.2Z" fill="#2F6098"/>
<path d="M227.623 365V359.84H237.263V389H231.503V365H227.623ZM262.395 364.68H249.435V371.52C249.995 370.827 250.795 370.267 251.835 369.84C252.875 369.387 253.982 369.16 255.155 369.16C257.288 369.16 259.035 369.627 260.395 370.56C261.755 371.493 262.742 372.693 263.355 374.16C263.968 375.6 264.275 377.147 264.275 378.8C264.275 381.867 263.395 384.333 261.635 386.2C259.902 388.067 257.422 389 254.195 389C251.155 389 248.728 388.24 246.915 386.72C245.102 385.2 244.075 383.213 243.835 380.76H249.275C249.515 381.827 250.048 382.68 250.875 383.32C251.728 383.96 252.808 384.28 254.115 384.28C255.688 384.28 256.875 383.787 257.675 382.8C258.475 381.813 258.875 380.507 258.875 378.88C258.875 377.227 258.462 375.973 257.635 375.12C256.835 374.24 255.648 373.8 254.075 373.8C252.955 373.8 252.022 374.08 251.275 374.64C250.528 375.2 249.995 375.947 249.675 376.88H244.315V359.76H262.395V364.68Z" fill="#2F6098"/>
<path d="M335.701 365V359.84H345.341V389H339.581V365H335.701ZM365.993 367.12C365.727 366 365.26 365.16 364.593 364.6C363.953 364.04 363.02 363.76 361.793 363.76C359.953 363.76 358.593 364.507 357.713 366C356.86 367.467 356.42 369.867 356.393 373.2C357.033 372.133 357.967 371.307 359.193 370.72C360.42 370.107 361.753 369.8 363.193 369.8C364.927 369.8 366.46 370.173 367.793 370.92C369.127 371.667 370.167 372.76 370.913 374.2C371.66 375.613 372.033 377.32 372.033 379.32C372.033 381.213 371.647 382.907 370.873 384.4C370.127 385.867 369.02 387.013 367.553 387.84C366.087 388.667 364.34 389.08 362.313 389.08C359.54 389.08 357.353 388.467 355.753 387.24C354.18 386.013 353.073 384.307 352.433 382.12C351.82 379.907 351.513 377.187 351.513 373.96C351.513 369.08 352.353 365.4 354.033 362.92C355.713 360.413 358.367 359.16 361.993 359.16C364.793 359.16 366.967 359.92 368.513 361.44C370.06 362.96 370.953 364.853 371.193 367.12H365.993ZM361.913 374.4C360.5 374.4 359.313 374.813 358.353 375.64C357.393 376.467 356.913 377.667 356.913 379.24C356.913 380.813 357.353 382.053 358.233 382.96C359.14 383.867 360.407 384.32 362.033 384.32C363.473 384.32 364.607 383.88 365.433 383C366.287 382.12 366.713 380.933 366.713 379.44C366.713 377.893 366.3 376.667 365.473 375.76C364.673 374.853 363.487 374.4 361.913 374.4Z" fill="#2F6098"/>
<path d="M450.537 365V359.84H460.177V389H454.417V365H450.537ZM484.269 364.08L473.629 389H467.949L478.669 364.72H464.989V359.92H484.269V364.08Z" fill="#2F6098"/>
<path d="M562.642 365V359.84H572.282V389H566.522V365H562.642ZM582.695 373.56C580.028 372.173 578.695 370.027 578.695 367.12C578.695 365.68 579.055 364.373 579.775 363.2C580.521 362 581.628 361.053 583.095 360.36C584.588 359.64 586.401 359.28 588.535 359.28C590.668 359.28 592.468 359.64 593.935 360.36C595.428 361.053 596.535 362 597.255 363.2C598.001 364.373 598.375 365.68 598.375 367.12C598.375 368.587 598.015 369.88 597.295 371C596.575 372.093 595.615 372.947 594.415 373.56C595.881 374.2 597.028 375.133 597.855 376.36C598.681 377.587 599.095 379.04 599.095 380.72C599.095 382.533 598.628 384.12 597.695 385.48C596.788 386.813 595.535 387.84 593.935 388.56C592.335 389.28 590.535 389.64 588.535 389.64C586.535 389.64 584.735 389.28 583.135 388.56C581.561 387.84 580.308 386.813 579.375 385.48C578.468 384.12 578.015 382.533 578.015 380.72C578.015 379.04 578.428 377.587 579.255 376.36C580.081 375.107 581.228 374.173 582.695 373.56ZM592.935 367.92C592.935 366.613 592.535 365.6 591.735 364.88C590.961 364.16 589.895 363.8 588.535 363.8C587.201 363.8 586.135 364.16 585.335 364.88C584.561 365.6 584.175 366.627 584.175 367.96C584.175 369.16 584.575 370.12 585.375 370.84C586.201 371.56 587.255 371.92 588.535 371.92C589.815 371.92 590.868 371.56 591.695 370.84C592.521 370.093 592.935 369.12 592.935 367.92ZM588.535 376C587.015 376 585.775 376.387 584.815 377.16C583.881 377.933 583.415 379.04 583.415 380.48C583.415 381.813 583.868 382.907 584.775 383.76C585.708 384.587 586.961 385 588.535 385C590.108 385 591.348 384.573 592.255 383.72C593.161 382.867 593.615 381.787 593.615 380.48C593.615 379.067 593.148 377.973 592.215 377.2C591.281 376.4 590.055 376 588.535 376Z" fill="#2F6098"/>
<path d="M678.474 365V359.84H688.114V389H682.354V365H678.474ZM700.127 380.8C700.34 381.973 700.82 382.88 701.567 383.52C702.34 384.133 703.367 384.44 704.647 384.44C706.3 384.44 707.5 383.76 708.247 382.4C708.993 381.013 709.367 378.693 709.367 375.44C708.753 376.293 707.887 376.96 706.767 377.44C705.673 377.92 704.487 378.16 703.207 378.16C701.5 378.16 699.953 377.813 698.567 377.12C697.207 376.4 696.127 375.347 695.327 373.96C694.527 372.547 694.127 370.84 694.127 368.84C694.127 365.88 695.007 363.533 696.767 361.8C698.527 360.04 700.927 359.16 703.967 359.16C707.753 359.16 710.42 360.373 711.967 362.8C713.54 365.227 714.327 368.88 714.327 373.76C714.327 377.227 714.02 380.067 713.407 382.28C712.82 384.493 711.793 386.173 710.327 387.32C708.887 388.467 706.913 389.04 704.407 389.04C702.433 389.04 700.753 388.667 699.367 387.92C697.98 387.147 696.913 386.147 696.167 384.92C695.447 383.667 695.033 382.293 694.927 380.8H700.127ZM704.367 373.6C705.753 373.6 706.847 373.173 707.647 372.32C708.447 371.467 708.847 370.32 708.847 368.88C708.847 367.307 708.42 366.093 707.567 365.24C706.74 364.36 705.607 363.92 704.167 363.92C702.727 363.92 701.58 364.373 700.727 365.28C699.9 366.16 699.487 367.333 699.487 368.8C699.487 370.213 699.887 371.373 700.687 372.28C701.513 373.16 702.74 373.6 704.367 373.6Z" fill="#2F6098"/>
<path d="M791.766 382.68C794.326 380.547 796.366 378.773 797.886 377.36C799.406 375.92 800.673 374.427 801.686 372.88C802.699 371.333 803.206 369.813 803.206 368.32C803.206 366.96 802.886 365.893 802.246 365.12C801.606 364.347 800.619 363.96 799.286 363.96C797.953 363.96 796.926 364.413 796.206 365.32C795.486 366.2 795.113 367.413 795.086 368.96H789.646C789.753 365.76 790.699 363.333 792.486 361.68C794.299 360.027 796.593 359.2 799.366 359.2C802.406 359.2 804.739 360.013 806.366 361.64C807.993 363.24 808.806 365.36 808.806 368C808.806 370.08 808.246 372.067 807.126 373.96C806.006 375.853 804.726 377.507 803.286 378.92C801.846 380.307 799.966 381.987 797.646 383.96H809.446V388.6H789.686V384.44L791.766 382.68ZM812.975 374.04C812.975 369.427 813.801 365.813 815.455 363.2C817.135 360.587 819.908 359.28 823.775 359.28C827.641 359.28 830.401 360.587 832.055 363.2C833.735 365.813 834.575 369.427 834.575 374.04C834.575 378.68 833.735 382.32 832.055 384.96C830.401 387.6 827.641 388.92 823.775 388.92C819.908 388.92 817.135 387.6 815.455 384.96C813.801 382.32 812.975 378.68 812.975 374.04ZM829.055 374.04C829.055 372.067 828.921 370.413 828.655 369.08C828.415 367.72 827.908 366.613 827.135 365.76C826.388 364.907 825.268 364.48 823.775 364.48C822.281 364.48 821.148 364.907 820.375 365.76C819.628 366.613 819.121 367.72 818.855 369.08C818.615 370.413 818.495 372.067 818.495 374.04C818.495 376.067 818.615 377.773 818.855 379.16C819.095 380.52 819.601 381.627 820.375 382.48C821.148 383.307 822.281 383.72 823.775 383.72C825.268 383.72 826.401 383.307 827.175 382.48C827.948 381.627 828.455 380.52 828.695 379.16C828.935 377.773 829.055 376.067 829.055 374.04Z" fill="#2F6098"/>
<path d="M909.95 382.68C912.51 380.547 914.55 378.773 916.07 377.36C917.59 375.92 918.856 374.427 919.87 372.88C920.883 371.333 921.39 369.813 921.39 368.32C921.39 366.96 921.07 365.893 920.43 365.12C919.79 364.347 918.803 363.96 917.47 363.96C916.136 363.96 915.11 364.413 914.39 365.32C913.67 366.2 913.296 367.413 913.27 368.96H907.83C907.936 365.76 908.883 363.333 910.67 361.68C912.483 360.027 914.776 359.2 917.55 359.2C920.59 359.2 922.923 360.013 924.55 361.64C926.176 363.24 926.99 365.36 926.99 368C926.99 370.08 926.43 372.067 925.31 373.96C924.19 375.853 922.91 377.507 921.47 378.92C920.03 380.307 918.15 381.987 915.83 383.96H927.63V388.6H907.87V384.44L909.95 382.68ZM930.478 365V359.84H940.118V389H934.358V365H930.478Z" fill="#2F6098"/>
<path d="M226.711 475.68C229.271 473.547 231.311 471.773 232.831 470.36C234.351 468.92 235.618 467.427 236.631 465.88C237.645 464.333 238.151 462.813 238.151 461.32C238.151 459.96 237.831 458.893 237.191 458.12C236.551 457.347 235.565 456.96 234.231 456.96C232.898 456.96 231.871 457.413 231.151 458.32C230.431 459.2 230.058 460.413 230.031 461.96H224.591C224.698 458.76 225.645 456.333 227.431 454.68C229.245 453.027 231.538 452.2 234.311 452.2C237.351 452.2 239.685 453.013 241.311 454.64C242.938 456.24 243.751 458.36 243.751 461C243.751 463.08 243.191 465.067 242.071 466.96C240.951 468.853 239.671 470.507 238.231 471.92C236.791 473.307 234.911 474.987 232.591 476.96H244.391V481.6H224.631V477.44L226.711 475.68ZM249.68 475.68C252.24 473.547 254.28 471.773 255.8 470.36C257.32 468.92 258.587 467.427 259.6 465.88C260.613 464.333 261.12 462.813 261.12 461.32C261.12 459.96 260.8 458.893 260.16 458.12C259.52 457.347 258.533 456.96 257.2 456.96C255.867 456.96 254.84 457.413 254.12 458.32C253.4 459.2 253.027 460.413 253 461.96H247.56C247.667 458.76 248.613 456.333 250.4 454.68C252.213 453.027 254.507 452.2 257.28 452.2C260.32 452.2 262.653 453.013 264.28 454.64C265.907 456.24 266.72 458.36 266.72 461C266.72 463.08 266.16 465.067 265.04 466.96C263.92 468.853 262.64 470.507 261.2 471.92C259.76 473.307 257.88 474.987 255.56 476.96H267.36V481.6H247.6V477.44L249.68 475.68Z" fill="#2F6098"/>
<path d="M334.723 475.68C337.283 473.547 339.323 471.773 340.843 470.36C342.363 468.92 343.63 467.427 344.643 465.88C345.656 464.333 346.163 462.813 346.163 461.32C346.163 459.96 345.843 458.893 345.203 458.12C344.563 457.347 343.576 456.96 342.243 456.96C340.91 456.96 339.883 457.413 339.163 458.32C338.443 459.2 338.07 460.413 338.043 461.96H332.603C332.71 458.76 333.656 456.333 335.443 454.68C337.256 453.027 339.55 452.2 342.323 452.2C345.363 452.2 347.696 453.013 349.323 454.64C350.95 456.24 351.763 458.36 351.763 461C351.763 463.08 351.203 465.067 350.083 466.96C348.963 468.853 347.683 470.507 346.243 471.92C344.803 473.307 342.923 474.987 340.603 476.96H352.403V481.6H332.643V477.44L334.723 475.68ZM356.012 460.52C356.145 457.853 357.078 455.8 358.812 454.36C360.572 452.893 362.878 452.16 365.732 452.16C367.678 452.16 369.345 452.507 370.732 453.2C372.118 453.867 373.158 454.787 373.852 455.96C374.572 457.107 374.932 458.413 374.932 459.88C374.932 461.56 374.492 462.987 373.612 464.16C372.758 465.307 371.732 466.08 370.532 466.48V466.64C372.078 467.12 373.278 467.973 374.132 469.2C375.012 470.427 375.452 472 375.452 473.92C375.452 475.52 375.078 476.947 374.332 478.2C373.612 479.453 372.532 480.44 371.092 481.16C369.678 481.853 367.972 482.2 365.972 482.2C362.958 482.2 360.505 481.44 358.612 479.92C356.718 478.4 355.718 476.16 355.612 473.2H361.052C361.105 474.507 361.545 475.56 362.372 476.36C363.225 477.133 364.385 477.52 365.852 477.52C367.212 477.52 368.252 477.147 368.972 476.4C369.718 475.627 370.092 474.64 370.092 473.44C370.092 471.84 369.585 470.693 368.572 470C367.558 469.307 365.985 468.96 363.852 468.96H362.692V464.36H363.852C367.638 464.36 369.532 463.093 369.532 460.56C369.532 459.413 369.185 458.52 368.492 457.88C367.825 457.24 366.852 456.92 365.572 456.92C364.318 456.92 363.345 457.267 362.652 457.96C361.985 458.627 361.598 459.48 361.492 460.52H356.012Z" fill="#2F6098"/>
<path d="M445.973 475.68C448.533 473.547 450.573 471.773 452.093 470.36C453.613 468.92 454.88 467.427 455.893 465.88C456.906 464.333 457.413 462.813 457.413 461.32C457.413 459.96 457.093 458.893 456.453 458.12C455.813 457.347 454.826 456.96 453.493 456.96C452.16 456.96 451.133 457.413 450.413 458.32C449.693 459.2 449.32 460.413 449.293 461.96H443.853C443.96 458.76 444.906 456.333 446.693 454.68C448.506 453.027 450.8 452.2 453.573 452.2C456.613 452.2 458.946 453.013 460.573 454.64C462.2 456.24 463.013 458.36 463.013 461C463.013 463.08 462.453 465.067 461.333 466.96C460.213 468.853 458.933 470.507 457.493 471.92C456.053 473.307 454.173 474.987 451.853 476.96H463.653V481.6H443.893V477.44L445.973 475.68ZM466.942 476.32V471.92L480.022 453.2H486.542V471.44H490.062V476.32H486.542V482H480.942V476.32H466.942ZM481.302 459.2L473.102 471.44H481.302V459.2Z" fill="#2F6098"/>
<path d="M560.825 475.68C563.385 473.547 565.425 471.773 566.945 470.36C568.465 468.92 569.731 467.427 570.745 465.88C571.758 464.333 572.265 462.813 572.265 461.32C572.265 459.96 571.945 458.893 571.305 458.12C570.665 457.347 569.678 456.96 568.345 456.96C567.011 456.96 565.985 457.413 565.265 458.32C564.545 459.2 564.171 460.413 564.145 461.96H558.705C558.811 458.76 559.758 456.333 561.545 454.68C563.358 453.027 565.651 452.2 568.425 452.2C571.465 452.2 573.798 453.013 575.425 454.64C577.051 456.24 577.865 458.36 577.865 461C577.865 463.08 577.305 465.067 576.185 466.96C575.065 468.853 573.785 470.507 572.345 471.92C570.905 473.307 569.025 474.987 566.705 476.96H578.505V481.6H558.745V477.44L560.825 475.68ZM601.633 457.68H588.673V464.52C589.233 463.827 590.033 463.267 591.073 462.84C592.113 462.387 593.22 462.16 594.393 462.16C596.527 462.16 598.273 462.627 599.633 463.56C600.993 464.493 601.98 465.693 602.593 467.16C603.207 468.6 603.513 470.147 603.513 471.8C603.513 474.867 602.633 477.333 600.873 479.2C599.14 481.067 596.66 482 593.433 482C590.393 482 587.967 481.24 586.153 479.72C584.34 478.2 583.313 476.213 583.073 473.76H588.513C588.753 474.827 589.287 475.68 590.113 476.32C590.967 476.96 592.047 477.28 593.353 477.28C594.927 477.28 596.113 476.787 596.913 475.8C597.713 474.813 598.113 473.507 598.113 471.88C598.113 470.227 597.7 468.973 596.873 468.12C596.073 467.24 594.887 466.8 593.313 466.8C592.193 466.8 591.26 467.08 590.513 467.64C589.767 468.2 589.233 468.947 588.913 469.88H583.553V452.76H601.633V457.68Z" fill="#2F6098"/>
<path d="M676.903 475.68C679.463 473.547 681.503 471.773 683.023 470.36C684.543 468.92 685.809 467.427 686.823 465.88C687.836 464.333 688.343 462.813 688.343 461.32C688.343 459.96 688.023 458.893 687.383 458.12C686.743 457.347 685.756 456.96 684.423 456.96C683.089 456.96 682.063 457.413 681.343 458.32C680.623 459.2 680.249 460.413 680.223 461.96H674.783C674.889 458.76 675.836 456.333 677.623 454.68C679.436 453.027 681.729 452.2 684.503 452.2C687.543 452.2 689.876 453.013 691.503 454.64C693.129 456.24 693.943 458.36 693.943 461C693.943 463.08 693.383 465.067 692.263 466.96C691.143 468.853 689.863 470.507 688.423 471.92C686.983 473.307 685.103 474.987 682.783 476.96H694.583V481.6H674.823V477.44L676.903 475.68ZM713.231 460.12C712.965 459 712.498 458.16 711.831 457.6C711.191 457.04 710.258 456.76 709.031 456.76C707.191 456.76 705.831 457.507 704.951 459C704.098 460.467 703.658 462.867 703.631 466.2C704.271 465.133 705.205 464.307 706.431 463.72C707.658 463.107 708.991 462.8 710.431 462.8C712.165 462.8 713.698 463.173 715.031 463.92C716.365 464.667 717.405 465.76 718.151 467.2C718.898 468.613 719.271 470.32 719.271 472.32C719.271 474.213 718.885 475.907 718.111 477.4C717.365 478.867 716.258 480.013 714.791 480.84C713.325 481.667 711.578 482.08 709.551 482.08C706.778 482.08 704.591 481.467 702.991 480.24C701.418 479.013 700.311 477.307 699.671 475.12C699.058 472.907 698.751 470.187 698.751 466.96C698.751 462.08 699.591 458.4 701.271 455.92C702.951 453.413 705.605 452.16 709.231 452.16C712.031 452.16 714.205 452.92 715.751 454.44C717.298 455.96 718.191 457.853 718.431 460.12H713.231ZM709.151 467.4C707.738 467.4 706.551 467.813 705.591 468.64C704.631 469.467 704.151 470.667 704.151 472.24C704.151 473.813 704.591 475.053 705.471 475.96C706.378 476.867 707.645 477.32 709.271 477.32C710.711 477.32 711.845 476.88 712.671 476C713.525 475.12 713.951 473.933 713.951 472.44C713.951 470.893 713.538 469.667 712.711 468.76C711.911 467.853 710.725 467.4 709.151 467.4Z" fill="#2F6098"/>
<path d="M793.739 475.68C796.299 473.547 798.339 471.773 799.859 470.36C801.379 468.92 802.645 467.427 803.659 465.88C804.672 464.333 805.179 462.813 805.179 461.32C805.179 459.96 804.859 458.893 804.219 458.12C803.579 457.347 802.592 456.96 801.259 456.96C799.925 456.96 798.899 457.413 798.179 458.32C797.459 459.2 797.085 460.413 797.059 461.96H791.619C791.725 458.76 792.672 456.333 794.459 454.68C796.272 453.027 798.565 452.2 801.339 452.2C804.379 452.2 806.712 453.013 808.339 454.64C809.965 456.24 810.779 458.36 810.779 461C810.779 463.08 810.219 465.067 809.099 466.96C807.979 468.853 806.699 470.507 805.259 471.92C803.819 473.307 801.939 474.987 799.619 476.96H811.419V481.6H791.659V477.44L793.739 475.68ZM833.507 457.08L822.867 482H817.187L827.907 457.72H814.227V452.92H833.507V457.08Z" fill="#2F6098"/>
<path d="M904.844 475.68C907.404 473.547 909.444 471.773 910.964 470.36C912.484 468.92 913.751 467.427 914.764 465.88C915.777 464.333 916.284 462.813 916.284 461.32C916.284 459.96 915.964 458.893 915.324 458.12C914.684 457.347 913.697 456.96 912.364 456.96C911.031 456.96 910.004 457.413 909.284 458.32C908.564 459.2 908.191 460.413 908.164 461.96H902.724C902.831 458.76 903.777 456.333 905.564 454.68C907.377 453.027 909.671 452.2 912.444 452.2C915.484 452.2 917.817 453.013 919.444 454.64C921.071 456.24 921.884 458.36 921.884 461C921.884 463.08 921.324 465.067 920.204 466.96C919.084 468.853 917.804 470.507 916.364 471.92C914.924 473.307 913.044 474.987 910.724 476.96H922.524V481.6H902.764V477.44L904.844 475.68ZM930.933 466.56C928.266 465.173 926.933 463.027 926.933 460.12C926.933 458.68 927.293 457.373 928.013 456.2C928.76 455 929.866 454.053 931.333 453.36C932.826 452.64 934.64 452.28 936.773 452.28C938.906 452.28 940.706 452.64 942.173 453.36C943.666 454.053 944.773 455 945.493 456.2C946.24 457.373 946.613 458.68 946.613 460.12C946.613 461.587 946.253 462.88 945.533 464C944.813 465.093 943.853 465.947 942.653 466.56C944.12 467.2 945.266 468.133 946.093 469.36C946.92 470.587 947.333 472.04 947.333 473.72C947.333 475.533 946.866 477.12 945.933 478.48C945.026 479.813 943.773 480.84 942.173 481.56C940.573 482.28 938.773 482.64 936.773 482.64C934.773 482.64 932.973 482.28 931.373 481.56C929.8 480.84 928.546 479.813 927.613 478.48C926.706 477.12 926.253 475.533 926.253 473.72C926.253 472.04 926.666 470.587 927.493 469.36C928.32 468.107 929.466 467.173 930.933 466.56ZM941.173 460.92C941.173 459.613 940.773 458.6 939.973 457.88C939.2 457.16 938.133 456.8 936.773 456.8C935.44 456.8 934.373 457.16 933.573 457.88C932.8 458.6 932.413 459.627 932.413 460.96C932.413 462.16 932.813 463.12 933.613 463.84C934.44 464.56 935.493 464.92 936.773 464.92C938.053 464.92 939.106 464.56 939.933 463.84C940.76 463.093 941.173 462.12 941.173 460.92ZM936.773 469C935.253 469 934.013 469.387 933.053 470.16C932.12 470.933 931.653 472.04 931.653 473.48C931.653 474.813 932.106 475.907 933.013 476.76C933.946 477.587 935.2 478 936.773 478C938.346 478 939.586 477.573 940.493 476.72C941.4 475.867 941.853 474.787 941.853 473.48C941.853 472.067 941.386 470.973 940.453 470.2C939.52 469.4 938.293 469 936.773 469Z" fill="#2F6098"/>
<path d="M227.176 568.68C229.736 566.547 231.776 564.773 233.296 563.36C234.816 561.92 236.083 560.427 237.096 558.88C238.109 557.333 238.616 555.813 238.616 554.32C238.616 552.96 238.296 551.893 237.656 551.12C237.016 550.347 236.029 549.96 234.696 549.96C233.363 549.96 232.336 550.413 231.616 551.32C230.896 552.2 230.523 553.413 230.496 554.96H225.056C225.163 551.76 226.109 549.333 227.896 547.68C229.709 546.027 232.003 545.2 234.776 545.2C237.816 545.2 240.149 546.013 241.776 547.64C243.403 549.24 244.216 551.36 244.216 554C244.216 556.08 243.656 558.067 242.536 559.96C241.416 561.853 240.136 563.507 238.696 564.92C237.256 566.307 235.376 567.987 233.056 569.96H244.856V574.6H225.096V570.44L227.176 568.68ZM254.865 566.8C255.078 567.973 255.558 568.88 256.305 569.52C257.078 570.133 258.105 570.44 259.385 570.44C261.038 570.44 262.238 569.76 262.985 568.4C263.732 567.013 264.105 564.693 264.105 561.44C263.492 562.293 262.625 562.96 261.505 563.44C260.412 563.92 259.225 564.16 257.945 564.16C256.238 564.16 254.692 563.813 253.305 563.12C251.945 562.4 250.865 561.347 250.065 559.96C249.265 558.547 248.865 556.84 248.865 554.84C248.865 551.88 249.745 549.533 251.505 547.8C253.265 546.04 255.665 545.16 258.705 545.16C262.492 545.16 265.158 546.373 266.705 548.8C268.278 551.227 269.065 554.88 269.065 559.76C269.065 563.227 268.758 566.067 268.145 568.28C267.558 570.493 266.532 572.173 265.065 573.32C263.625 574.467 261.652 575.04 259.145 575.04C257.172 575.04 255.492 574.667 254.105 573.92C252.718 573.147 251.652 572.147 250.905 570.92C250.185 569.667 249.772 568.293 249.665 566.8H254.865ZM259.105 559.6C260.492 559.6 261.585 559.173 262.385 558.32C263.185 557.467 263.585 556.32 263.585 554.88C263.585 553.307 263.158 552.093 262.305 551.24C261.478 550.36 260.345 549.92 258.905 549.92C257.465 549.92 256.318 550.373 255.465 551.28C254.638 552.16 254.225 553.333 254.225 554.8C254.225 556.213 254.625 557.373 255.425 558.28C256.252 559.16 257.478 559.6 259.105 559.6Z" fill="#2F6098"/>
<path d="M332.098 553.52C332.231 550.853 333.164 548.8 334.898 547.36C336.658 545.893 338.964 545.16 341.818 545.16C343.764 545.16 345.431 545.507 346.818 546.2C348.204 546.867 349.244 547.787 349.938 548.96C350.658 550.107 351.018 551.413 351.018 552.88C351.018 554.56 350.578 555.987 349.698 557.16C348.844 558.307 347.818 559.08 346.618 559.48V559.64C348.164 560.12 349.364 560.973 350.218 562.2C351.098 563.427 351.538 565 351.538 566.92C351.538 568.52 351.164 569.947 350.418 571.2C349.698 572.453 348.618 573.44 347.178 574.16C345.764 574.853 344.058 575.2 342.058 575.2C339.044 575.2 336.591 574.44 334.698 572.92C332.804 571.4 331.804 569.16 331.698 566.2H337.138C337.191 567.507 337.631 568.56 338.458 569.36C339.311 570.133 340.471 570.52 341.938 570.52C343.298 570.52 344.338 570.147 345.058 569.4C345.804 568.627 346.178 567.64 346.178 566.44C346.178 564.84 345.671 563.693 344.658 563C343.644 562.307 342.071 561.96 339.938 561.96H338.778V557.36H339.938C343.724 557.36 345.618 556.093 345.618 553.56C345.618 552.413 345.271 551.52 344.578 550.88C343.911 550.24 342.938 549.92 341.658 549.92C340.404 549.92 339.431 550.267 338.738 550.96C338.071 551.627 337.684 552.48 337.578 553.52H332.098ZM355.963 560.04C355.963 555.427 356.79 551.813 358.443 549.2C360.123 546.587 362.896 545.28 366.763 545.28C370.63 545.28 373.39 546.587 375.043 549.2C376.723 551.813 377.563 555.427 377.563 560.04C377.563 564.68 376.723 568.32 375.043 570.96C373.39 573.6 370.63 574.92 366.763 574.92C362.896 574.92 360.123 573.6 358.443 570.96C356.79 568.32 355.963 564.68 355.963 560.04ZM372.043 560.04C372.043 558.067 371.91 556.413 371.643 555.08C371.403 553.72 370.896 552.613 370.123 551.76C369.376 550.907 368.256 550.48 366.763 550.48C365.27 550.48 364.136 550.907 363.363 551.76C362.616 552.613 362.11 553.72 361.843 555.08C361.603 556.413 361.483 558.067 361.483 560.04C361.483 562.067 361.603 563.773 361.843 565.16C362.083 566.52 362.59 567.627 363.363 568.48C364.136 569.307 365.27 569.72 366.763 569.72C368.256 569.72 369.39 569.307 370.163 568.48C370.936 567.627 371.443 566.52 371.683 565.16C371.923 563.773 372.043 562.067 372.043 560.04Z" fill="#2F6098"/>
<path d="M451.281 553.52C451.415 550.853 452.348 548.8 454.081 547.36C455.841 545.893 458.148 545.16 461.001 545.16C462.948 545.16 464.615 545.507 466.001 546.2C467.388 546.867 468.428 547.787 469.121 548.96C469.841 550.107 470.201 551.413 470.201 552.88C470.201 554.56 469.761 555.987 468.881 557.16C468.028 558.307 467.001 559.08 465.801 559.48V559.64C467.348 560.12 468.548 560.973 469.401 562.2C470.281 563.427 470.721 565 470.721 566.92C470.721 568.52 470.348 569.947 469.601 571.2C468.881 572.453 467.801 573.44 466.361 574.16C464.948 574.853 463.241 575.2 461.241 575.2C458.228 575.2 455.775 574.44 453.881 572.92C451.988 571.4 450.988 569.16 450.881 566.2H456.321C456.375 567.507 456.815 568.56 457.641 569.36C458.495 570.133 459.655 570.52 461.121 570.52C462.481 570.52 463.521 570.147 464.241 569.4C464.988 568.627 465.361 567.64 465.361 566.44C465.361 564.84 464.855 563.693 463.841 563C462.828 562.307 461.255 561.96 459.121 561.96H457.961V557.36H459.121C462.908 557.36 464.801 556.093 464.801 553.56C464.801 552.413 464.455 551.52 463.761 550.88C463.095 550.24 462.121 549.92 460.841 549.92C459.588 549.92 458.615 550.267 457.921 550.96C457.255 551.627 456.868 552.48 456.761 553.52H451.281ZM474.467 551V545.84H484.107V575H478.347V551H474.467Z" fill="#2F6098"/>
<defs>
<filter id="filter0_d_66_233" x="4.95911e-05" y="41.2" width="1189.6" height="675.6" filterUnits="userSpaceOnUse" color-interpolation-filters="sRGB">
<feFlood flood-opacity="0" result="BackgroundImageFix"/>
<feColorMatrix in="SourceAlpha" type="matrix" values="0 0 0 0 0 0 0 0 0 0 0 0 0 0 0 0 0 0 127 0" result="hardAlpha"/>
<feMorphology radius="2" operator="dilate" in="SourceAlpha" result="effect1_dropShadow_66_233"/>
<feOffset dy="4"/>
<feGaussianBlur stdDeviation="8.4"/>
<feComposite in2="hardAlpha" operator="out"/>
<feColorMatrix type="matrix" values="0 0 0 0 0.184314 0 0 0 0 0.376471 0 0 0 0 0.596078 0 0 0 1 0"/>
<feBlend mode="normal" in2="BackgroundImageFix" result="effect1_dropShadow_66_233"/>
<feBlend mode="normal" in="SourceGraphic" in2="effect1_dropShadow_66_233" result="shape"/>
</filter>
</defs>
</svg>
